<svg width="50" height="50" viewBox="0 0 723 721" fill="none"
    xmlns="http://www.w3.org/2000/svg">
    <path
        d="M362.53 0H360.47C161.388 0 0 160.942 0 359.473V361.527C0 560.059 161.388 721 360.47 721H362.53C561.612 721 723 560.059 723 361.527V359.473C723 160.942 561.612 0 362.53 0Z"
        fill="white" />
    <path
        d="M468.367 164H265.523C237.283 164.045 210.213 175.265 190.245 195.2C170.278 215.135 159.042 242.159 159 270.35V455.602C159.029 483.809 170.266 510.853 190.245 530.8C210.225 550.747 237.315 561.968 265.572 562H468.416C496.674 561.968 523.765 550.748 543.747 530.801C563.728 510.854 574.968 483.81 575 455.602V270.35C574.955 242.141 563.703 215.102 543.712 195.165C523.722 175.227 496.625 164.019 468.367 164ZM529.173 270.399V455.65C529.138 471.738 522.72 487.157 511.324 498.533C499.929 509.908 484.483 516.315 468.367 516.35H265.523C249.407 516.315 233.961 509.908 222.566 498.533C211.17 487.157 204.753 471.738 204.717 455.65V270.35C204.753 254.262 211.17 238.843 222.566 227.468C233.961 216.092 249.407 209.685 265.523 209.65H468.367C484.483 209.685 499.929 216.092 511.324 227.468C522.72 238.843 529.138 254.262 529.173 270.35V270.399Z"
        fill="#000000" />
    <path
        d="M366.506 264C340.127 264.029 314.835 274.467 296.181 293.026C277.527 311.584 267.032 336.747 267 362.994C267.029 389.243 277.522 414.409 296.177 432.97C314.832 451.531 340.125 461.971 366.506 462C392.886 461.968 418.176 451.526 436.828 432.966C455.48 414.405 465.971 389.241 466 362.994C465.971 336.748 455.479 311.585 436.827 293.027C418.175 274.468 392.885 264.029 366.506 264ZM420.227 362.994C420.211 377.165 414.546 390.751 404.475 400.772C394.404 410.792 380.749 416.429 366.506 416.445C352.264 416.429 338.609 410.792 328.538 400.772C318.466 390.751 312.801 377.165 312.785 362.994C312.801 348.823 318.466 335.237 328.538 325.216C338.609 315.196 352.264 309.559 366.506 309.543C380.749 309.559 394.404 315.196 404.475 325.216C414.546 335.237 420.211 348.823 420.227 362.994Z"
        fill="#000000" />
    <path
        d="M474.494 291C480.46 290.997 486.181 288.679 490.4 284.555C494.62 280.432 496.994 274.839 497 269.006C496.994 263.172 494.62 257.578 490.401 253.452C486.182 249.327 480.461 247.006 474.494 247C468.528 247.006 462.809 249.327 458.591 253.453C454.374 257.579 452.003 263.173 452 269.006C452.006 274.837 454.378 280.428 458.595 284.551C462.812 288.674 468.53 290.994 474.494 291Z"
        fill="#000000" />
</svg>
