<svg xmlns="http://www.w3.org/2000/svg" width="50" height="50" viewBox="0 0 50 50" fill="none">
  <!-- Círculo blanco -->
  <circle cx="25" cy="25" r="25" fill="white" />
  <!-- Logo de YouTube -->
  <g transform="translate(13, 13)">
    <path stroke="none" d="M0 0h24v24H0z" fill="none" />
    <path d="M18 3a5 5 0 0 1 5 5v8a5 5 0 0 1 -5 5h-12a5 5 0 0 1 -5 -5v-8a5 5 0 0 1 5 -5zm-9 6v6a1 1 0 0 0 1.514 .857l5 -3a1 1 0 0 0 0 -1.714l-5 -3a1 1 0 0 0 -1.514 .857z" fill="currentColor" />
  </g>
</svg>
