<svg width="50" height="50" viewBox="0 0 723 721" fill="none" xmlns="http://www.w3.org/2000/svg">
        <path
            d="M362.53 0H360.47C161.388 0 0 160.942 0 359.473V361.527C0 560.059 161.388 721 360.47 721H362.53C561.612 721 723 560.059 723 361.527V359.473C723 160.942 561.612 0 362.53 0Z"
            fill="white" />
        <path
            d="M372.399 265.015V288.667H456.15L433.606 347.868H374.979V576H292.396V347.892H239V288.667H292.396V264.409C292.396 228.156 303.431 198.088 324.332 177.493C345.878 156.231 378.032 145 417.304 145C443.157 145 467.099 149.985 483 158.548L462.744 214.195C451.567 208.856 439.321 206.114 426.927 206.178C391.792 206.142 372.399 227.052 372.399 265.015Z"
            fill="#000000" />
</svg>
