<svg width="50" height="50" viewBox="0 0 723 721" fill="none"
    xmlns="http://www.w3.org/2000/svg">
    <path
        d="M362.53 0H360.47C161.388 0 0 160.942 0 359.473V361.527C0 560.059 161.388 721 360.47 721H362.53C561.612 721 723 560.059 723 361.527V359.473C723 160.942 561.612 0 362.53 0Z"
        fill="white" />
    <path
        d="M544 256.066V327.188C528.065 325.65 512.392 322.092 497.361 316.598C478.455 309.682 460.788 299.778 445.039 287.266V431.147L444.759 430.698C444.954 433.537 445.039 436.436 445.039 439.372C444.994 473.736 431.282 506.679 406.91 530.979C382.538 555.279 349.495 568.952 315.026 569C280.555 568.955 247.508 555.283 223.134 530.983C198.759 506.683 185.045 473.738 185 439.372C185.039 405.002 198.749 372.05 223.125 347.745C247.5 323.439 280.55 309.764 315.026 309.72C321.953 309.72 328.87 310.268 335.711 311.357V381.521C329.073 379.156 322.075 377.953 315.026 377.967C298.696 377.986 283.04 384.461 271.494 395.973C259.947 407.485 253.451 423.092 253.432 439.372C253.454 455.651 259.951 471.256 271.497 482.767C283.043 494.278 298.697 500.755 315.026 500.777C331.352 500.752 347.003 494.273 358.546 482.763C370.09 471.252 376.584 455.649 376.607 439.372C376.607 438.159 376.607 436.837 376.498 435.563V156H447.862L448.628 174.123C449.117 185.979 453.35 197.379 460.723 206.694C471.544 220.424 484.938 231.926 500.159 240.563C513.763 248.219 528.597 253.465 544 256.066Z"
        fill="#000000" />
</svg>
